 <svg  version="1.0" xmlns="http://www.w3.org/2000/svg"  width="300.000000pt" height="86.000000pt" viewBox="0 0 300.000000 86.000000"  preserveAspectRatio="xMidYMid meet">  <g transform="translate(0.000000,86.000000) scale(0.100000,-0.100000)" fill="#ffffff" stroke="none"> <path d="M278 764 c-62 -20 -83 -32 -111 -64 -19 -22 -37 -40 -42 -40 -13 0 -55 -50 -55 -66 0 -30 30 -84 69 -127 23 -24 41 -48 41 -52 0 -5 17 -42 37 -84 63 -126 203 -250 265 -233 27 7 88 66 88 86 0 29 -37 56 -79 56 -29 0 -47 7 -71 30 -18 17 -30 33 -27 36 9 10 122 -28 140 -47 37 -39 64 -51 86 -39 12 6 21 14 21 19 0 4 22 20 49 34 27 15 53 33 60 40 6 8 11 43 10 78 0 35 2 113 6 172 l7 108 -28 31 c-24 24 -35 29 -61 25 -26 -5 -35 -1 -47 18 -21 32 -71 44 -186 44 -73 0 -113 -6 -172 -25z m172 -148 l0 -133 -49 -27 c-35 -19 -58 -25 -75 -20 -15 3 -26 9 -26 13 0 3 23 19 50 34 l50 28 0 95 c0 108 5 104 -95 73 l-67 -21 4 -88 4 -88 -27 21 c-26 21 -28 27 -28 103 l-1 82 48 20 c68 30 183 54 205 44 4 -2 7 -63 7 -136z m145 120 c19 -5 20 -12 17 -139 -3 -134 -3 -134 22 -150 l25 -17 12 43 c7 23 12 86 12 139 l-1 97 23 -15 c40 -26 43 -135 8 -249 -28 -90 -25 -89 -93 -48 l-60 35 0 134 c0 125 -1 134 -19 134 -18 0 -19 -7 -15 -120 4 -99 2 -120 -9 -120 -30 0 -36 27 -37 155 -1 72 -1 133 -1 136 1 6 60 -2 116 -15z m-438 -104 c-25 -28 -21 -57 15 -97 67 -77 210 -153 359 -191 95 -24 189 -8 189 32 0 8 5 14 10 14 6 0 10 -11 10 -23 0 -87 -191 -88 -376 -2 -154 71 -264 164 -264 222 0 12 12 31 26 42 33 26 53 28 31 3z m193 -47 c0 -44 -4 -57 -22 -69 -41 -29 -49 -21 -46 46 3 55 6 64 27 75 35 17 41 9 41 -52z m204 -182 c47 -27 85 -51 86 -54 0 -13 -112 11 -145 31 -19 12 -39 18 -45 15 -13 -8 -60 2 -60 13 0 9 51 40 67 41 7 1 51 -20 97 -46z m-274 -13 c0 -3 -9 -11 -20 -18 -19 -11 -22 -9 -35 22 -8 20 -15 38 -15 40 0 7 69 -37 70 -44z m67 -31 l28 -11 -29 -15 -30 -15 67 -65 c44 -43 72 -63 82 -59 8 3 21 8 28 11 7 3 21 -1 32 -8 18 -14 16 -16 -23 -42 l-41 -27 -33 20 c-34 22 -119 106 -157 156 l-22 30 33 18 c18 9 34 17 35 18 1 0 14 -5 30 -11z m277 -93 c-13 -22 -19 -23 -40 -14 -40 19 -29 38 23 38 33 0 33 0 17 -24z"/> <path d="M986 690 c-16 -5 -44 -24 -62 -41 -61 -59 -68 -131 -19 -203 l24 -35 -29 -30 c-27 -27 -30 -35 -30 -98 0 -46 5 -76 16 -91 16 -23 53 -29 71 -11 8 8 19 7 39 -4 20 -10 36 -12 53 -6 15 6 36 5 58 -2 40 -13 96 -5 113 17 11 13 15 13 30 -1 15 -14 26 -16 90 -14 14 1 34 -1 45 -4 11 -2 32 3 47 11 19 11 30 13 40 5 19 -15 274 -16 299 0 15 9 23 9 39 -1 24 -15 124 -16 152 -1 14 8 23 8 31 0 19 -19 65 -13 81 11 19 26 22 148 6 179 -8 13 -7 25 1 41 9 17 8 28 -7 55 -15 29 -16 39 -6 67 20 55 15 85 -22 122 -31 31 -39 34 -93 34 -72 0 -93 -17 -100 -85 -3 -25 -8 -45 -12 -45 -3 0 -15 21 -25 47 -52 125 -116 111 -176 -38 -21 -52 -36 -76 -44 -72 -6 4 -31 10 -56 13 -40 4 -45 8 -45 30 0 23 4 25 47 28 35 2 52 9 63 25 21 30 19 50 -10 77 -39 37 -111 33 -169 -7 l-44 -31 -27 28 c-48 50 -117 43 -163 -15 l-22 -27 -35 30 c-19 17 -51 36 -72 41 -43 12 -38 12 -77 1z m90 -46 c74 -35 89 -131 30 -190 -38 -38 -86 -45 -135 -19 -37 19 -65 77 -58 122 7 41 21 59 62 85 37 22 57 23 101 2z m249 2 c26 -19 13 -51 -15 -36 -27 14 -62 3 -58 -18 2 -8 23 -28 48 -42 38 -22 45 -31 48 -62 4 -44 -24 -68 -79 -68 -44 0 -83 28 -70 50 8 12 14 12 34 1 34 -18 72 -11 72 13 0 13 -16 29 -45 46 -36 21 -46 32 -48 57 -5 54 67 93 113 59z m257 -4 c16 -16 -2 -43 -26 -36 -37 13 -70 5 -93 -21 -26 -29 -28 -43 -12 -78 15 -33 53 -49 95 -41 26 5 35 2 40 -11 9 -22 -12 -35 -59 -35 -75 0 -127 48 -127 117 0 70 65 128 134 119 21 -2 43 -9 48 -14z m213 -87 c22 -55 44 -108 48 -117 5 -14 1 -18 -17 -18 -18 0 -27 8 -35 30 -9 27 -14 30 -55 30 -40 0 -45 -3 -55 -30 -7 -22 -16 -30 -34 -30 l-25 0 39 98 c22 53 44 107 49 120 19 44 42 21 85 -83z m228 77 c17 -15 23 -68 9 -88 -4 -6 -15 -15 -24 -20 -15 -8 -13 -15 23 -57 l41 -47 -31 0 c-24 0 -36 8 -61 45 -40 58 -54 58 -48 0 5 -42 4 -45 -18 -45 -24 0 -24 0 -24 118 l0 119 58 -5 c31 -2 65 -11 75 -20z m-853 -196 c0 -2 3 -11 6 -20 5 -12 0 -16 -20 -16 -24 0 -35 18 -19 33 7 8 33 10 33 3z m240 -11 c17 -20 5 -45 -20 -45 -11 0 -23 7 -26 15 -6 15 11 45 26 45 4 0 13 -7 20 -15z m357 -11 c3 -8 -3 -25 -14 -37 -11 -12 -24 -30 -30 -40 -8 -15 -11 -13 -26 18 -16 34 -16 36 3 55 24 24 58 26 67 4z m224 -20 c12 -14 11 -16 -5 -13 -11 2 -21 10 -24 17 -5 17 13 15 29 -4z m-391 -9 c-7 -8 -17 -15 -22 -15 -6 0 -5 7 2 15 7 8 17 15 22 15 6 0 5 -7 -2 -15z m284 6 c3 -5 0 -21 -7 -35 l-14 -26 -13 24 c-7 13 -9 29 -6 35 9 13 33 14 40 2z m-907 -71 c15 -27 32 -50 36 -50 5 0 6 23 2 50 -7 49 -6 50 19 50 l26 0 0 -90 c0 -87 -1 -90 -23 -90 -17 0 -31 14 -56 55 -18 30 -35 55 -37 55 -2 0 -1 -25 2 -55 7 -54 6 -55 -20 -55 l-26 0 1 90 c1 88 2 90 24 90 18 0 31 -12 52 -50z m223 30 c0 -16 -7 -20 -30 -20 -20 0 -30 -5 -30 -15 0 -10 10 -15 30 -15 23 0 30 -4 30 -20 0 -16 -7 -20 -30 -20 -20 0 -30 -5 -30 -15 0 -10 10 -15 30 -15 23 0 30 -4 30 -20 0 -17 -7 -20 -50 -20 l-50 0 0 90 0 90 50 0 c43 0 50 -3 50 -20z m83 -37 c15 -60 18 -59 37 15 16 63 40 53 59 -23 l15 -60 15 63 c13 55 17 62 39 62 15 0 22 -5 19 -12 -2 -7 -14 -48 -27 -90 -19 -66 -26 -78 -45 -78 -17 0 -24 9 -35 53 l-13 52 -15 -52 c-12 -43 -19 -53 -36 -53 -18 0 -25 13 -47 90 l-27 90 23 0 c19 0 25 -9 38 -57z m282 7 c9 -27 18 -50 20 -50 2 0 11 23 20 50 13 40 21 50 39 50 21 0 24 -6 29 -67 10 -106 10 -113 -13 -113 -17 0 -20 7 -20 51 0 59 -12 57 -30 -6 -7 -25 -18 -45 -25 -45 -7 0 -18 20 -25 45 -18 63 -30 65 -30 6 0 -45 -2 -51 -21 -51 -21 0 -22 3 -16 68 4 37 7 77 7 90 0 17 6 22 24 22 20 0 27 -8 41 -50z m276 -32 c19 -45 36 -86 37 -90 2 -4 -8 -8 -22 -8 -19 0 -26 5 -26 20 0 16 -7 20 -35 20 -24 0 -37 -6 -45 -20 -10 -19 -56 -30 -48 -12 2 4 18 45 37 90 24 59 38 82 51 82 13 0 27 -23 51 -82z m140 27 c17 -30 33 -55 36 -55 3 0 3 25 1 55 -4 52 -3 55 19 55 22 0 23 -2 23 -90 0 -87 -1 -90 -22 -90 -17 1 -32 15 -55 53 l-32 52 -1 -52 c0 -46 -3 -53 -20 -53 -19 0 -20 7 -20 90 0 83 2 90 20 90 14 0 30 -17 51 -55z"/> <path d="M985 595 c-66 -65 7 -172 82 -120 44 31 37 111 -13 134 -35 16 -42 14 -69 -14z m63 -53 c2 -13 -3 -25 -13 -28 -23 -9 -38 10 -30 36 9 27 39 22 43 -8z"/> <path d="M1721 559 c-16 -46 -14 -49 19 -49 17 0 30 2 30 4 0 8 -31 76 -34 76 -2 0 -9 -14 -15 -31z"/> <path d="M1930 586 c0 -33 2 -36 30 -36 55 0 51 62 -4 68 -24 3 -26 0 -26 -32z"/> <path d="M1780 301 c0 -5 -3 -16 -6 -25 -4 -12 0 -16 16 -16 16 0 20 4 16 16 -3 9 -6 20 -6 25 0 5 -4 9 -10 9 -5 0 -10 -4 -10 -9z"/> </g> </svg> 